<svg width="89" height="89" viewBox="0 0 89 89" fill="none" xmlns="http://www.w3.org/2000/svg">
<path d="M83.8067 0.5H5.19333C2.60128 0.5 0.5 2.60128 0.5 5.19333V83.8066C0.5 86.3987 2.60128 88.5 5.19333 88.5H83.8067C86.3987 88.5 88.5 86.3987 88.5 83.8066V5.19333C88.5 2.60128 86.3987 0.5 83.8067 0.5Z" fill="#FDFCFC" stroke="#025B6F" stroke-miterlimit="10"/>
<path d="M11.4821 28.8535C11.4821 25.4802 11.353 25.3512 6.03198 25.0226V22.9458H23.3621V25.0226C18.1056 25.3453 17.912 25.4743 17.912 28.8535V59.4248C17.912 62.7981 18.1056 62.9272 23.3621 63.3202V65.3325H6.03198V63.3202C11.353 62.933 11.4821 62.7981 11.4821 59.4248V28.8535ZM33.4176 25.1575L31.0181 24.9639V22.9517H46.0133V24.9639C40.8859 25.2866 39.6539 26.0023 36.5387 28.6658C32.7723 31.9101 28.1669 36.3277 24.0779 40.8685C28.1669 47.0344 33.3589 53.3938 38.8149 59.1725C41.3493 61.9005 43.3616 63.3261 45.7611 63.9128L45.8256 65.6669L41.7365 65.4733C37.712 65.2797 34.4677 64.2413 30.8949 60.0877C26.2192 54.7666 22.001 48.8589 18.4986 43.5378V43.2152C22.9104 38.6685 29.9856 31.5933 33.4938 27.5687C34.8549 26.0786 34.7259 25.2338 33.4293 25.1693L33.4176 25.1575Z" fill="#025B6F"/>
<path d="M48.4128 65.3325V63.3202C53.7339 62.933 53.863 62.7981 53.863 59.4248V28.8535C53.863 25.4157 53.7339 25.2866 48.4128 24.9581V22.9458H65.6784C70.0256 22.9458 73.9211 23.5325 76.9072 25.3453C79.6352 27.0994 81.583 30.2792 81.583 34.9549C81.583 42.5522 77.2358 46.0546 72.56 47.4157C70.2896 48.1314 67.6262 48.325 65.4203 48.325C63.3435 48.325 61.2667 48.0023 60.3574 47.7383V59.4248C60.3574 62.7981 60.3574 62.9272 66.6523 63.3202V65.3325H48.4128ZM60.3574 43.4616C60.3574 45.3448 61.9824 45.9901 65.743 45.9901C71.1931 45.9901 74.6368 42.9394 74.6368 35.4125C74.6368 28.7245 70.935 25.2221 64.7691 25.2221C60.8091 25.2221 60.3574 25.7383 60.3574 27.4925V43.4616Z" fill="#025B6F"/>
</svg>
