<svg width="89" height="89" viewBox="0 0 89 89" fill="none" xmlns="http://www.w3.org/2000/svg">
<path d="M83.8067 0.5H5.19333C2.60128 0.5 0.5 2.60128 0.5 5.19333V83.8067C0.5 86.3987 2.60128 88.5 5.19333 88.5H83.8067C86.3987 88.5 88.5 86.3987 88.5 83.8067V5.19333C88.5 2.60128 86.3987 0.5 83.8067 0.5Z" fill="#025B6F" stroke="#025B6F" stroke-miterlimit="10"/>
<path d="M11.4765 28.8535C11.4765 25.4802 11.3474 25.3512 6.02637 25.0226V22.9458H23.3565V25.0226C18.1 25.3453 17.9064 25.4802 17.9064 28.8535V59.4247C17.9064 62.7981 18.1 62.9271 23.3565 63.3202V65.3325H6.02637V63.3202C11.3474 62.933 11.4765 62.8039 11.4765 59.4247V28.8535ZM33.4178 25.1517L31.0184 24.9581V22.9458H46.0135V24.9581C40.8861 25.2807 39.6541 25.9965 36.5389 28.66C32.7725 31.9042 28.1671 36.316 24.0781 40.8626C28.1671 47.0285 33.3591 53.388 38.8151 59.1666C41.3495 61.8946 43.3618 63.3202 45.7613 63.9069L45.8258 65.661L41.7368 65.4674C37.7122 65.2738 34.4679 64.2354 30.8951 60.0818C26.2194 54.7608 22.0013 48.853 18.4989 43.5319V43.2093C22.9106 38.6626 29.9858 31.5933 33.4941 27.5629C34.8552 26.0727 34.7261 25.228 33.4295 25.1634L33.4178 25.1517Z" fill="#F0F5F8"/>
<path d="M48.4131 65.3325V63.3202C53.7342 62.933 53.8632 62.8039 53.8632 59.4247V28.8535C53.8632 25.4157 53.7342 25.2866 48.4131 24.9581V22.9458H65.6786C70.0258 22.9458 73.9213 23.5325 76.9075 25.3453C79.6355 27.0994 81.5832 30.2792 81.5832 34.9549C81.5832 42.5522 77.236 46.0546 72.5603 47.4157C70.2899 48.1314 67.6264 48.325 65.4205 48.325C63.3437 48.325 61.2669 48.0023 60.3576 47.7383V59.4247C60.3576 62.7981 60.3576 62.9271 66.6525 63.3202V65.3325H48.4131ZM60.3576 43.4616C60.3576 45.3448 61.9827 45.996 65.7432 45.996C71.1934 45.996 74.6371 42.9453 74.6371 35.4125C74.6371 28.7245 70.9352 25.2221 64.7694 25.2221C60.8094 25.2221 60.3576 25.7442 60.3576 27.4925V43.4616Z" fill="#F0F5F8"/>
</svg>
