<svg width="511" height="89" viewBox="0 0 511 89" fill="none" xmlns="http://www.w3.org/2000/svg">
<path d="M507.359 0.5H3.64051C1.90606 0.5 0.5 1.37067 0.5 2.4447V86.5553C0.5 87.6293 1.90606 88.5 3.64051 88.5H507.359C509.094 88.5 510.5 87.6293 510.5 86.5553V2.4447C510.5 1.37067 509.094 0.5 507.359 0.5Z" fill="#025B6F" stroke="#025B6F" stroke-miterlimit="10"/>
<path d="M60.8725 34.4814C60.8725 32.2242 60.7861 32.1378 57.2256 31.918V30.5283H68.822V31.918C65.3046 32.1339 65.175 32.2242 65.175 34.4814V54.938C65.175 57.1952 65.3046 57.2816 68.822 57.5446V58.8911H57.2256V57.5446C60.7861 57.2855 60.8725 57.1991 60.8725 54.938V34.4814ZM75.5544 32.0044L73.9488 31.8748V30.5283H83.9828V31.8748C80.5518 32.0907 79.7274 32.5697 77.6429 34.3519C75.1226 36.5228 72.041 39.4749 69.3048 42.5173C72.041 46.6431 75.5152 50.8985 79.166 54.7653C80.8619 56.5907 82.2084 57.5446 83.814 57.9372L83.8572 59.1109L81.121 58.9814C78.428 58.8519 76.2571 58.157 73.8664 55.3777C70.7377 51.8171 67.9151 47.864 65.5715 44.3034V44.0875C68.5236 41.0451 73.2579 36.3147 75.6055 33.6178C76.5162 32.6207 76.4298 32.0554 75.5623 32.0122L75.5544 32.0044Z" fill="#F0F5F8"/>
<path d="M93.5769 54.938C93.5769 57.1952 93.7064 57.2816 97.2238 57.5446V58.8911H85.5842V57.5446C89.1448 57.2855 89.2312 57.1991 89.2312 54.938V34.4814C89.2312 32.2242 89.1448 32.1378 85.5842 31.918V30.5283H98.2248C105.307 30.5283 107.258 33.6571 107.258 37.5199C107.258 41.3827 104.478 43.7734 100.655 44.5115V44.5978C104.997 45.6381 106.213 48.6373 106.692 52.2411C107.085 55.0636 107.737 57.1913 110.905 57.5407V58.8872H107.474C104.953 58.8872 103.348 57.9764 102.739 55.3266C102.304 53.4148 101.829 50.2429 101.522 49.0731C100.784 46.121 98.7862 45.3398 96.2227 45.3398H93.5729V54.938H93.5769ZM93.5769 43.8206H96.6624C100.659 43.8206 102.614 42.1286 102.614 37.9125C102.614 32.4833 99.2258 32.0475 96.2306 32.0475C93.5808 32.0475 93.5808 32.3537 93.5808 34.0889V43.8166L93.5769 43.8206Z" fill="#F0F5F8"/>
<path d="M120.679 54.938C120.679 57.1952 120.809 57.2816 124.326 57.5446V58.8911H112.73V57.5446C116.291 57.2855 116.377 57.1991 116.377 54.938V34.4814C116.377 32.2242 116.291 32.1378 112.73 31.918V30.5283H124.326V31.918C120.809 32.1339 120.679 32.2242 120.679 34.4814V54.938Z" fill="#F0F5F8"/>
<path d="M143.786 37.6526C143.091 33.4836 141.136 31.3559 137.662 31.3559C134.188 31.3559 132.448 33.6131 132.448 36.5691C132.448 39.8274 135.75 41.3898 138.357 42.3909C143.264 44.2595 146.871 45.865 146.871 51.2078C146.871 55.5496 144.049 59.5891 136.708 59.5891C133.842 59.5891 130.454 58.8511 128.629 57.1552L128.193 50.5091H129.583C130.67 55.157 133.143 58.0659 136.924 58.0659C140.704 58.0659 142.745 56.111 142.745 52.5936C142.745 49.0762 139.314 47.4235 136.362 46.3401C132.15 44.8208 128.633 43.0386 128.633 37.9588C128.633 32.4001 132.931 29.7935 138.015 29.7935C140.794 29.7935 143.66 30.5747 145.226 31.5325V37.6565H143.794L143.786 37.6526Z" fill="#F0F5F8"/>
<path d="M162.939 54.938C162.939 56.7634 163.069 57.2384 165.416 57.4151L167.458 57.5446V58.8911H154.165V57.5446L156.25 57.4151C158.55 57.2855 158.637 56.7202 158.637 54.938V32.0475H156.293C151.602 32.0475 150.864 33.0447 150.299 37.7829H148.866V30.5283H172.71V37.7829H171.32C170.755 33.0486 170.06 32.0475 165.326 32.0475H162.935V54.938H162.939Z" fill="#F0F5F8"/>
<path d="M183.828 54.938C183.828 57.1952 183.957 57.2816 187.475 57.5446V58.8911H175.878V57.5446C179.439 57.2855 179.525 57.1991 179.525 54.938V34.4814C179.525 32.2242 179.439 32.1378 175.878 31.918V30.5283H187.475V31.918C183.957 32.1339 183.828 32.2242 183.828 34.4814V54.938Z" fill="#F0F5F8"/>
<path d="M204.983 58.891V57.5445L206.894 57.3718C208.155 57.2422 208.37 56.7633 207.939 55.6327C207.244 53.6345 205.768 49.3792 205.246 47.9895H196.079C195.169 50.8984 194.297 53.2459 193.645 55.723C193.296 56.7633 193.429 57.1991 194.642 57.3286L196.77 57.5445V58.891H187.737V57.5445C190.301 57.4149 190.689 56.936 191.561 54.7219C194.513 47.0355 197.469 38.3049 200.248 30.3555H203.55C205.85 37.1311 210.066 49.0769 212.237 55.1145C212.975 57.199 213.411 57.3286 215.755 57.5484V58.8949H204.983V58.891ZM200.723 34.5677H200.594C199.377 38.0851 197.901 42.3876 196.641 46.4271H204.72C203.809 43.475 201.677 37.2607 200.723 34.5677Z" fill="#F0F5F8"/>
<path d="M238.991 58.8906C233.259 50.6821 227.653 42.5168 221.836 34.3514H221.749V50.2895C221.749 52.5468 221.836 54.1131 222.008 55.4596C222.267 57.2418 223.528 57.3282 226.177 57.5441V58.8906H216.014V57.5441C218.142 57.3714 219.315 57.1987 219.574 55.4596C219.747 54.1131 219.834 52.5507 219.834 50.2895V34.5241C219.834 32.2237 219.747 32.1374 216.187 31.9175V30.5278H224.222C228.827 37.0876 234.645 45.512 239.988 52.9393L240.031 53.0257V39.125C240.031 36.8678 239.945 35.3014 239.772 33.9549C239.513 32.1727 238.21 32.0863 235.56 31.9136V30.5239H245.723V31.9136C243.595 32.0863 242.508 32.1727 242.249 33.9549C242.076 35.3446 241.99 36.8638 241.99 39.125V58.8867H238.995L238.991 58.8906Z" fill="#F0F5F8"/>
<path d="M264.829 58.8911V57.5446C268.39 57.2855 268.476 57.1991 268.476 54.938V34.4814C268.476 32.181 268.39 32.0946 264.829 31.8748V30.5283H276.383C279.291 30.5283 281.898 30.9209 283.896 32.1339C285.722 33.3077 287.025 35.4354 287.025 38.5641C287.025 43.6478 284.116 45.9914 280.987 46.9022C279.468 47.3811 277.686 47.5107 276.21 47.5107C274.82 47.5107 273.43 47.2947 272.822 47.1181V54.938C272.822 57.1952 272.822 57.2816 277.034 57.5446V58.8911H264.829ZM272.822 44.2524C272.822 45.5125 273.909 45.9483 276.426 45.9483C280.073 45.9483 282.377 43.9069 282.377 38.8664C282.377 34.3912 279.9 32.0475 275.774 32.0475C273.124 32.0475 272.822 32.3969 272.822 33.5668V44.2524Z" fill="#F0F5F8"/>
<path d="M302.358 58.891V57.5445L304.27 57.3718C305.53 57.2422 305.746 56.7633 305.314 55.6327C304.62 53.6345 303.144 49.3792 302.621 47.9895H293.455C292.544 50.8984 291.673 53.2459 291.021 55.723C290.672 56.7633 290.805 57.1991 292.018 57.3286L294.146 57.5445V58.891H285.113V57.5445C287.676 57.4149 288.065 56.936 288.937 54.7219C291.889 47.0355 294.845 38.3049 297.624 30.3555H300.926C303.226 37.1311 307.442 49.0769 309.613 55.1145C310.351 57.199 310.787 57.3286 313.13 57.5484V58.8949H302.358V58.891ZM298.099 34.5677H297.97C296.753 38.0851 295.277 42.3876 294.016 46.4271H302.095C301.185 43.475 299.053 37.2607 298.099 34.5677Z" fill="#F0F5F8"/>
<path d="M323.423 58.891V57.5445L325.335 57.3718C326.595 57.2422 326.811 56.7633 326.379 55.6327C325.684 53.6345 324.208 49.3792 323.686 47.9895H314.52C313.609 50.8984 312.738 53.2459 312.086 55.723C311.737 56.7633 311.87 57.1991 313.083 57.3286L315.211 57.5445V58.891H306.178V57.5445C308.741 57.4149 309.13 56.936 310.002 54.7219C312.954 47.0355 315.91 38.3049 318.689 30.3555H321.99C324.291 37.1311 328.507 49.0769 330.678 55.1145C331.416 57.199 331.852 57.3286 334.195 57.5484V58.8949H323.423V58.891ZM319.164 34.5677H319.034C317.818 38.0851 316.341 42.3876 315.081 46.4271H323.16C322.25 43.475 320.118 37.2607 319.164 34.5677Z" fill="#F0F5F8"/>
<path d="M339.145 34.4814C339.145 32.2242 339.059 32.1378 335.499 31.918V30.5283H347.095V31.918C343.578 32.1339 343.448 32.2242 343.448 34.4814V54.938C343.448 57.1952 343.578 57.2816 347.095 57.5446V58.8911H335.499V57.5446C339.059 57.2855 339.145 57.1991 339.145 54.938V34.4814ZM353.823 32.0044L352.218 31.8748V30.5283H362.252V31.8748C358.821 32.0907 357.996 32.5697 355.912 34.3519C353.392 36.5228 350.31 39.4749 347.574 42.5173C350.31 46.6431 353.784 50.8985 357.435 54.7653C359.131 56.5907 360.477 57.5446 362.083 57.9372L362.126 59.1109L359.39 58.9814C356.697 58.8519 354.526 58.157 352.135 55.3777C349.007 51.8171 346.184 47.864 343.841 44.3034V44.0875C346.793 41.0451 351.527 36.3147 353.874 33.6178C354.785 32.6207 354.699 32.0554 353.831 32.0122L353.823 32.0044Z" fill="#F0F5F8"/>
<path d="M373.413 53.591C373.413 57.8032 372.804 61.2342 369.157 62.9301C367.552 63.6681 366.248 63.7977 364.596 63.9272L364.38 62.8398C365.64 62.4944 366.551 62.145 367.418 61.0576C368.415 59.8839 369.114 57.7993 369.114 53.8462V34.4731C369.114 32.2159 369.028 32.1295 365.424 31.8665V30.52H377.063V31.8665C373.546 32.1256 373.416 32.212 373.416 34.4731V53.5832L373.413 53.591Z" fill="#F0F5F8"/>
<path d="M392.872 58.891V57.5445L394.784 57.3718C396.044 57.2422 396.26 56.7633 395.828 55.6327C395.133 53.6345 393.657 49.3792 393.135 47.9895H383.968C383.058 50.8984 382.186 53.2459 381.535 55.723C381.185 56.7633 381.319 57.1991 382.532 57.3286L384.659 57.5445V58.891H375.626V57.5445C378.19 57.4149 378.579 56.936 379.45 54.7219C382.402 47.0355 385.358 38.3049 388.137 30.3555H391.439C393.739 37.1311 397.956 49.0769 400.126 55.1145C400.864 57.199 401.3 57.3286 403.644 57.5484V58.8949H392.872V58.891ZM388.613 34.5677H388.483C387.266 38.0851 385.79 42.3876 384.53 46.4271H392.609C391.698 43.475 389.566 37.2607 388.613 34.5677Z" fill="#F0F5F8"/>
<path d="M405.988 34.4814C405.988 32.2242 405.901 32.1378 402.341 31.918V30.5283H423.146V37.3472H421.757C421.148 33.0918 420.194 32.0475 415.546 32.0475H411.809C410.506 32.0475 410.333 32.2203 410.333 33.5236V43.2945H415.676C419.107 43.2945 419.28 42.1207 419.672 39.6044H421.062V48.7708H419.672C419.327 46.1642 419.107 44.9472 415.676 44.9472H410.333V53.8938C410.333 56.6299 410.769 57.3248 415.503 57.3248C420.63 57.3248 422.452 56.3277 423.41 51.3735H424.842L423.975 58.8872H402.345V57.5407C405.905 57.2816 405.991 57.1952 405.991 54.9341V34.4775L405.988 34.4814Z" fill="#F0F5F8"/>
<path d="M436.258 54.938C436.258 57.1952 436.388 57.2816 439.905 57.5446V58.8911H428.266V57.5446C431.826 57.2855 431.913 57.1991 431.913 54.938V34.4814C431.913 32.2242 431.826 32.1378 428.266 31.918V30.5283H440.906C447.984 30.5283 449.939 33.6571 449.939 37.5199C449.939 41.3827 447.16 43.7734 443.336 44.5115V44.5978C447.678 45.6381 448.895 48.6373 449.374 52.2411C449.766 55.0636 450.418 57.1913 453.586 57.5407V58.8872H450.155C447.635 58.8872 446.029 57.9764 445.421 55.3266C444.985 53.4148 444.51 50.2429 444.204 49.0731C443.466 46.121 441.468 45.3398 438.904 45.3398H436.254V54.938H436.258ZM436.258 43.8206H439.344C443.34 43.8206 445.295 42.1286 445.295 37.9125C445.295 32.4833 441.907 32.0475 438.912 32.0475C436.262 32.0475 436.262 32.3537 436.262 34.0889V43.8166L436.258 43.8206Z" fill="#F0F5F8"/>
</svg>
