<svg width="397" height="35" viewBox="0 0 397 35" fill="none" xmlns="http://www.w3.org/2000/svg">
<path d="M3.64693 4.68799C3.64693 2.43074 3.56056 2.34439 0 2.12456V0.734863H11.5964V2.12456C8.07899 2.34047 7.94943 2.43074 7.94943 4.68799V25.1445C7.94943 27.4018 8.07899 27.4881 11.5964 27.7511V29.0977H0V27.7511C3.56056 27.4921 3.64693 27.4057 3.64693 25.1445V4.68799ZM18.3288 2.21091L16.7233 2.08136V0.734863H26.7572V2.08136C23.3262 2.29727 22.5018 2.77622 20.4173 4.55846C17.897 6.72934 14.8154 9.68142 12.0792 12.7238C14.8154 16.8496 18.2896 21.105 21.9404 24.9718C23.6363 26.7972 24.9828 27.7511 26.5884 28.1437L26.6316 29.3175L23.8954 29.1879C21.2024 29.0584 19.0315 28.3636 16.6408 25.5842C13.5121 22.0236 10.6895 18.0705 8.34592 14.51V14.2941C11.298 11.2517 16.0323 6.52126 18.3799 3.82434C19.2906 2.82723 19.2043 2.26195 18.3367 2.21877L18.3288 2.21091Z" fill="#F0F5F8"/>
<path d="M36.3513 25.1445C36.3513 27.4018 36.4808 27.4881 39.9982 27.7511V29.0977H28.3586V27.7511C31.9192 27.4921 32.0056 27.4057 32.0056 25.1445V4.68799C32.0056 2.43074 31.9192 2.34439 28.3586 2.12456V0.734863H40.9992C48.0811 0.734863 50.0321 3.8636 50.0321 7.72643C50.0321 11.5893 47.2528 13.98 43.4292 14.718V14.8044C47.771 15.8447 48.9879 18.8439 49.4668 22.4476C49.8594 25.2701 50.511 27.3978 53.679 27.7472V29.0937H50.248C47.7278 29.0937 46.1222 28.183 45.5137 25.5332C45.078 23.6214 44.603 20.4495 44.2968 19.2796C43.5587 16.3275 41.5606 15.5463 38.9972 15.5463H36.3473V25.1445H36.3513ZM36.3513 14.0271H39.4368C43.4331 14.0271 45.3881 12.3351 45.3881 8.119C45.3881 2.68983 42.0003 2.25409 39.005 2.25409C36.3552 2.25409 36.3552 2.56029 36.3552 4.29542V14.0232L36.3513 14.0271Z" fill="#F0F5F8"/>
<path d="M63.4538 25.1445C63.4538 27.4018 63.5834 27.4881 67.1007 27.7511V29.0977H55.5044V27.7511C59.065 27.4921 59.1513 27.4057 59.1513 25.1445V4.68799C59.1513 2.43074 59.065 2.34439 55.5044 2.12456V0.734863H67.1007V2.12456C63.5834 2.34047 63.4538 2.43074 63.4538 4.68799V25.1445Z" fill="#F0F5F8"/>
<path d="M86.5602 7.85915C85.8653 3.69011 83.9104 1.56242 80.4362 1.56242C76.962 1.56242 75.2229 3.81965 75.2229 6.77566C75.2229 10.0339 78.5244 11.5964 81.131 12.5974C86.0381 14.466 89.6457 16.0716 89.6457 21.4144C89.6457 25.7561 86.8232 29.7956 79.4822 29.7956C76.6165 29.7956 73.2287 29.0576 71.4033 27.3617L70.9675 20.7156H72.3572C73.4446 25.3636 75.9178 28.2725 79.6982 28.2725C83.4785 28.2725 85.5199 26.3175 85.5199 22.8001C85.5199 19.2828 82.0889 17.6301 79.1368 16.5466C74.9246 15.0274 71.4072 13.2451 71.4072 8.16533C71.4072 2.60662 75.7058 0 80.7895 0C83.5688 0 86.4345 0.7812 88.0009 1.73906V7.86308H86.568L86.5602 7.85915Z" fill="#F0F5F8"/>
<path d="M105.714 25.1445C105.714 26.9699 105.843 27.445 108.191 27.6216L110.232 27.7511V29.0977H96.9398V27.7511L99.0243 27.6216C101.325 27.4921 101.411 26.9268 101.411 25.1445V2.25409H99.0674C94.3763 2.25409 93.6383 3.25122 93.073 7.98947H91.6401V0.734863H115.484V7.98947H114.095C113.53 3.25514 112.835 2.25409 108.1 2.25409H105.71V25.1445H105.714Z" fill="#F0F5F8"/>
<path d="M126.602 25.1445C126.602 27.4018 126.732 27.4881 130.249 27.7511V29.0977H118.653V27.7511C122.213 27.4921 122.3 27.4057 122.3 25.1445V4.68799C122.3 2.43074 122.213 2.34439 118.653 2.12456V0.734863H130.249V2.12456C126.732 2.34047 126.602 2.43074 126.602 4.68799V25.1445Z" fill="#F0F5F8"/>
<path d="M147.757 29.0975V27.751L149.669 27.5783C150.929 27.4488 151.145 26.9698 150.713 25.8392C150.018 23.8411 148.542 19.5857 148.02 18.196H138.854C137.943 21.1049 137.071 23.4524 136.42 25.9295C136.07 26.9698 136.204 27.4056 137.417 27.5351L139.545 27.751V29.0975H130.512V27.751C133.075 27.6215 133.464 27.1425 134.335 24.9285C137.287 17.2421 140.243 8.51144 143.023 0.562012H146.324C148.625 7.33767 152.841 19.2834 155.012 25.321C155.75 27.4056 156.185 27.5351 158.529 27.755V29.1015H147.757V29.0975ZM143.498 4.77424H143.368C142.151 8.29162 140.675 12.5941 139.415 16.6336H147.494C146.583 13.6815 144.452 7.46724 143.498 4.77424Z" fill="#F0F5F8"/>
<path d="M181.765 29.0972C176.034 20.8887 170.428 12.7233 164.61 4.55797H164.524V20.4961C164.524 22.7533 164.61 24.3196 164.783 25.6661C165.042 27.4484 166.302 27.5347 168.952 27.7507V29.0972H158.788V27.7507C160.916 27.5779 162.09 27.4052 162.349 25.6661C162.522 24.3196 162.608 22.7572 162.608 20.4961V4.73068C162.608 2.43025 162.522 2.3439 158.961 2.12407V0.734374H166.997C171.602 7.29412 177.419 15.7186 182.762 23.1459L182.805 23.2322V9.33154C182.805 7.0743 182.719 5.50797 182.546 4.16148C182.287 2.37924 180.984 2.29287 178.334 2.12014V0.730469H188.498V2.12014C186.37 2.29287 185.283 2.37924 185.023 4.16148C184.851 5.55115 184.764 7.07037 184.764 9.33154V29.0932H181.769L181.765 29.0972Z" fill="#F0F5F8"/>
<path d="M207.604 29.0977V27.7511C211.164 27.4921 211.251 27.4057 211.251 25.1445V4.68799C211.251 2.38756 211.164 2.30119 207.604 2.08136V0.734863H219.157C222.066 0.734863 224.672 1.12744 226.671 2.34046C228.496 3.51423 229.799 5.64193 229.799 8.77067C229.799 13.8544 226.89 16.198 223.762 17.1087C222.242 17.5877 220.46 17.7172 218.984 17.7172C217.594 17.7172 216.205 17.5013 215.596 17.3246V25.1445C215.596 27.4018 215.596 27.4881 219.809 27.7511V29.0977H207.604ZM215.596 14.4589C215.596 15.7191 216.684 16.1548 219.2 16.1548C222.847 16.1548 225.151 14.1135 225.151 9.07295C225.151 4.59772 222.674 2.25409 218.548 2.25409C215.899 2.25409 215.596 2.60349 215.596 3.77333V14.4589Z" fill="#F0F5F8"/>
<path d="M245.133 29.0975V27.751L247.045 27.5783C248.305 27.4488 248.521 26.9698 248.089 25.8392C247.394 23.8411 245.918 19.5857 245.396 18.196H236.229C235.319 21.1049 234.447 23.4524 233.796 25.9295C233.446 26.9698 233.58 27.4056 234.793 27.5351L236.92 27.751V29.0975H227.887V27.751C230.451 27.6215 230.84 27.1425 231.711 24.9285C234.663 17.2421 237.619 8.51144 240.398 0.562012H243.7C246 7.33767 250.217 19.2834 252.387 25.321C253.125 27.4056 253.561 27.5351 255.905 27.755V29.1015H245.133V29.0975ZM240.873 4.77424H240.744C239.527 8.29162 238.051 12.5941 236.791 16.6336H244.87C243.959 13.6815 241.827 7.46724 240.873 4.77424Z" fill="#F0F5F8"/>
<path d="M266.198 29.0975V27.751L268.11 27.5783C269.37 27.4488 269.586 26.9698 269.154 25.8392C268.459 23.8411 266.983 19.5857 266.461 18.196H257.294C256.384 21.1049 255.512 23.4524 254.86 25.9295C254.511 26.9698 254.645 27.4056 255.858 27.5351L257.985 27.751V29.0975H248.952V27.751C251.516 27.6215 251.904 27.1425 252.776 24.9285C255.728 17.2421 258.684 8.51144 261.463 0.562012H264.765C267.065 7.33767 271.281 19.2834 273.452 25.321C274.19 27.4056 274.626 27.5351 276.97 27.755V29.1015H266.198V29.0975ZM261.938 4.77424H261.809C260.592 8.29162 259.116 12.5941 257.856 16.6336H265.935C265.024 13.6815 262.892 7.46724 261.938 4.77424Z" fill="#F0F5F8"/>
<path d="M281.92 4.68799C281.92 2.43074 281.834 2.34439 278.273 2.12456V0.734863H289.869V2.12456C286.352 2.34047 286.222 2.43074 286.222 4.68799V25.1445C286.222 27.4018 286.352 27.4881 289.869 27.7511V29.0977H278.273V27.7511C281.834 27.4921 281.92 27.4057 281.92 25.1445V4.68799ZM296.598 2.21091L294.992 2.08136V0.734863H305.026V2.08136C301.595 2.29727 300.771 2.77622 298.686 4.55846C296.166 6.72934 293.084 9.68142 290.348 12.7238C293.084 16.8496 296.559 21.105 300.209 24.9718C301.905 26.7972 303.252 27.7511 304.857 28.1437L304.901 29.3175L302.164 29.1879C299.471 29.0584 297.301 28.3636 294.91 25.5842C291.781 22.0236 288.959 18.0705 286.615 14.51V14.2941C289.567 11.2517 294.301 6.52126 296.649 3.82434C297.56 2.82723 297.473 2.26195 296.606 2.21877L296.598 2.21091Z" fill="#F0F5F8"/>
<path d="M316.187 23.7976C316.187 28.0098 315.578 31.4408 311.932 33.1367C310.326 33.8747 309.023 34.0042 307.37 34.1338L307.154 33.0464C308.414 32.7009 309.325 32.3516 310.192 31.2642C311.19 30.0904 311.888 28.0059 311.888 24.0527V4.67969C311.888 2.42244 311.802 2.33607 308.198 2.07306V0.726562H319.838V2.07306C316.32 2.33215 316.191 2.41852 316.191 4.67969V23.7897L316.187 23.7976Z" fill="#F0F5F8"/>
<path d="M335.646 29.0975V27.751L337.558 27.5783C338.818 27.4488 339.034 26.9698 338.602 25.8392C337.907 23.8411 336.431 19.5857 335.909 18.196H326.743C325.832 21.1049 324.961 23.4524 324.309 25.9295C323.96 26.9698 324.093 27.4056 325.306 27.5351L327.434 27.751V29.0975H318.401V27.751C320.964 27.6215 321.353 27.1425 322.224 24.9285C325.177 17.2421 328.133 8.51144 330.912 0.562012H334.213C336.514 7.33767 340.73 19.2834 342.901 25.321C343.639 27.4056 344.075 27.5351 346.418 27.755V29.1015H335.646V29.0975ZM331.387 4.77424H331.257C330.04 8.29162 328.564 12.5941 327.304 16.6336H335.383C334.472 13.6815 332.341 7.46724 331.387 4.77424Z" fill="#F0F5F8"/>
<path d="M348.762 4.68799C348.762 2.43074 348.676 2.34439 345.115 2.12456V0.734863H365.921V7.5537H364.531C363.923 3.29831 362.969 2.25409 358.321 2.25409H354.584C353.28 2.25409 353.108 2.42682 353.108 3.73013V13.5011H358.45C361.881 13.5011 362.054 12.3273 362.447 9.81095H363.836V18.9773H362.447C362.101 16.3707 361.881 15.1538 358.45 15.1538H353.108V24.1003C353.108 26.8365 353.543 27.5313 358.278 27.5313C363.405 27.5313 365.226 26.5342 366.184 21.58H367.617L366.749 29.0937H345.119V27.7472C348.679 27.4881 348.766 27.4018 348.766 25.1406V4.68406L348.762 4.68799Z" fill="#F0F5F8"/>
<path d="M379.033 25.1445C379.033 27.4018 379.162 27.4881 382.68 27.7511V29.0977H371.04V27.7511C374.601 27.4921 374.687 27.4057 374.687 25.1445V4.68799C374.687 2.43074 374.601 2.34439 371.04 2.12456V0.734863H383.681C390.759 0.734863 392.714 3.8636 392.714 7.72643C392.714 11.5893 389.934 13.98 386.111 14.718V14.8044C390.452 15.8447 391.669 18.8439 392.148 22.4476C392.541 25.2701 393.192 27.3978 396.36 27.7472V29.0937H392.929C390.409 29.0937 388.804 28.183 388.195 25.5332C387.759 23.6214 387.284 20.4495 386.978 19.2796C386.24 16.3275 384.242 15.5463 381.679 15.5463H379.029V25.1445H379.033ZM379.033 14.0271H382.118C386.114 14.0271 388.069 12.3351 388.069 8.119C388.069 2.68983 384.682 2.25409 381.686 2.25409C379.037 2.25409 379.037 2.56029 379.037 4.29542V14.0232L379.033 14.0271Z" fill="#F0F5F8"/>
</svg>
