<?xml version="1.0" encoding="UTF-8"?>
<svg id="Layer_9" data-name="Layer 9" xmlns="http://www.w3.org/2000/svg" viewBox="0 0 48 48">
  <defs>
    <style>
      .cls-1 {
        fill: #272626;
      }

      .cls-2 {
        fill: #f4f0ea;
      }
    </style>
  </defs>
  <g>
    <circle class="cls-2" cx="24" cy="24" r="20"/>
    <path class="cls-1" d="M24,44.5c-11.3,0-20.5-9.2-20.5-20.5S12.7,3.5,24,3.5s20.5,9.2,20.5,20.5-9.2,20.5-20.5,20.5ZM24,4.5C13.25,4.5,4.5,13.25,4.5,24s8.75,19.5,19.5,19.5,19.5-8.75,19.5-19.5S34.75,4.5,24,4.5Z"/>
  </g>
  <g>
    <path class="cls-1" d="M21.17,33.19l-9.55-9.55c-.59-.59-.59-1.54,0-2.12h0c.59-.59,1.54-.59,2.12,0l7.42,7.42,13.08-13.08c.59-.59,1.54-.59,2.12,0h0c.59.59.59,1.54,0,2.12l-15.2,15.2Z"/>
    <path class="cls-1" d="M21.17,33.69c-.13,0-.26-.05-.35-.15l-9.55-9.55c-.38-.38-.59-.88-.59-1.41s.21-1.04.59-1.41c.76-.76,2.07-.76,2.83,0l7.07,7.07,12.73-12.73c.76-.76,2.07-.76,2.83,0,.38.38.59.88.59,1.41s-.21,1.04-.59,1.41l-15.2,15.2c-.09.09-.22.15-.35.15ZM12.69,21.59c-.26,0-.51.1-.71.29-.39.39-.39,1.02,0,1.41l9.19,9.19,14.85-14.85c.39-.39.39-1.02,0-1.41-.38-.38-1.04-.38-1.41,0l-13.08,13.08c-.2.2-.51.2-.71,0l-7.42-7.42c-.2-.2-.45-.29-.71-.29Z"/>
  </g>
</svg>