<?xml version="1.0" encoding="UTF-8"?>
<svg id="Layer_32" data-name="Layer 32" xmlns="http://www.w3.org/2000/svg" viewBox="0 0 48 48">
  <defs>
    <style>
      .cls-1 {
        fill: #272626;
      }
    </style>
  </defs>
  <g>
    <rect class="cls-1" x="8" y="10" width="32" height="4" rx="2" ry="2"/>
    <path class="cls-1" d="M38,14.5H10c-1.38,0-2.5-1.12-2.5-2.5s1.12-2.5,2.5-2.5h28c1.38,0,2.5,1.12,2.5,2.5s-1.12,2.5-2.5,2.5ZM10,10.5c-.83,0-1.5.67-1.5,1.5s.67,1.5,1.5,1.5h28c.83,0,1.5-.67,1.5-1.5s-.67-1.5-1.5-1.5H10Z"/>
  </g>
  <g>
    <rect class="cls-1" x="8" y="22" width="32" height="4" rx="2" ry="2"/>
    <path class="cls-1" d="M38,26.5H10c-1.38,0-2.5-1.12-2.5-2.5s1.12-2.5,2.5-2.5h28c1.38,0,2.5,1.12,2.5,2.5s-1.12,2.5-2.5,2.5ZM10,22.5c-.83,0-1.5.67-1.5,1.5s.67,1.5,1.5,1.5h28c.83,0,1.5-.67,1.5-1.5s-.67-1.5-1.5-1.5H10Z"/>
  </g>
  <g>
    <rect class="cls-1" x="8" y="34" width="32" height="4" rx="2" ry="2"/>
    <path class="cls-1" d="M38,38.5H10c-1.38,0-2.5-1.12-2.5-2.5s1.12-2.5,2.5-2.5h28c1.38,0,2.5,1.12,2.5,2.5s-1.12,2.5-2.5,2.5ZM10,34.5c-.83,0-1.5.67-1.5,1.5s.67,1.5,1.5,1.5h28c.83,0,1.5-.67,1.5-1.5s-.67-1.5-1.5-1.5H10Z"/>
  </g>
</svg>