<?xml version="1.0" encoding="UTF-8"?>
<svg id="Layer_3" data-name="Layer 3" xmlns="http://www.w3.org/2000/svg" viewBox="0 0 48 48">
  <defs>
    <style>
      .cls-1 {
        fill: #272626;
      }

      .cls-2 {
        fill: #f4f0ea;
      }
    </style>
  </defs>
  <g>
    <path class="cls-1" d="M23.75,43.98c-6.96-.41-13.57-4.26-17.17-10.83-3.69-6.73-3.28-14.58.34-20.73,6.68-.02,13.18,3.24,17.08,9.08-.34.5-.66,1.03-.96,1.57-3.74,6.8-3.2,14.8.71,20.91Z"/>
    <path class="cls-1" d="M23.75,44.48s-.02,0-.03,0c-7.44-.44-14.01-4.58-17.58-11.09-3.61-6.59-3.48-14.72.35-21.22.1-.17.29-.25.49-.25,7.03,0,13.54,3.47,17.43,9.3.11.17.11.39,0,.56-.31.46-.63.97-.94,1.53-3.52,6.41-3.26,14.22.69,20.4.1.16.11.36.01.52-.09.15-.25.25-.43.25ZM7.21,12.92c-3.51,6.16-3.59,13.79-.19,19.99,3.24,5.92,9.1,9.79,15.8,10.49-3.65-6.34-3.75-14.13-.21-20.57.26-.47.53-.92.8-1.33-3.68-5.32-9.69-8.51-16.19-8.58Z"/>
  </g>
  <g>
    <path class="cls-1" d="M24.25,43.98s-.01.01-.01.02c-.08,0-.16-.01-.24-.01.08,0,.17-.01.25-.01Z"/>
    <path class="cls-1" d="M24.24,44.5h-.15s-.05,0-.07-.01h-.02c-.28,0-.5-.22-.5-.5s.22-.5.5-.5h.25c.28-.01.5.21.5.49,0,.08-.02.16-.06.23-.08.17-.25.29-.45.29Z"/>
  </g>
  <g>
    <path class="cls-2" d="M41.42,33.15c-3.6,6.57-10.21,10.42-17.17,10.83-.08,0-.17.01-.25.01s-.17-.01-.25-.01c-3.91-6.11-4.45-14.11-.71-20.91.3-.54.62-1.07.96-1.57,3.9-5.84,10.4-9.1,17.08-9.08,3.62,6.15,4.03,14,.34,20.73Z"/>
    <path class="cls-1" d="M24,44.49h-.16c-.17,0-.42-.1-.52-.24-4.15-6.48-4.43-14.69-.73-21.42.32-.59.66-1.13.98-1.61,3.89-5.82,10.4-9.3,17.43-9.3.19,0,.39.07.49.25,3.83,6.5,3.96,14.63.35,21.22-3.56,6.5-10.14,10.65-17.58,11.09l-.15-.49.03.5h-.16ZM24.03,43.49h.22c7.07-.42,13.33-4.38,16.73-10.58h0c3.4-6.2,3.32-13.83-.19-19.99-6.61.07-12.71,3.37-16.38,8.86-.31.46-.63.98-.94,1.53-3.48,6.33-3.26,14.03.55,20.17Z"/>
  </g>
  <path class="cls-1" d="M23.76,44.5c-.2,0-.38-.12-.45-.29-.04-.07-.06-.15-.06-.23,0-.28.22-.5.5-.5h.16s.05,0,.07.01h.02c.28,0,.5.22.5.5s-.22.5-.5.5h-.24Z"/>
  <path class="cls-1" d="M24,43.65c-.08,0-.17-.02-.25-.06-.24-.14-.33-.44-.19-.68l10.47-18.52c.14-.24.44-.32.68-.19.24.14.33.44.19.68l-10.47,18.52c-.09.16-.26.25-.44.25Z"/>
</svg>