<?xml version="1.0" encoding="UTF-8"?>
<svg id="Layer_26" data-name="Layer 26" xmlns="http://www.w3.org/2000/svg" viewBox="0 0 48 48">
  <defs>
    <style>
      .cls-1 {
        fill: #272626;
      }

      .cls-2 {
        fill: #f4f0ea;
        stroke: #272626;
        stroke-linecap: round;
        stroke-linejoin: round;
      }
    </style>
  </defs>
  <path class="cls-2" d="M42,4.38c-5.7.7-11.1,2.41-16,4.94-.67.35-1.34.72-2,1.1v34l.36-.21c.45-.25.9-.5,1.36-.74.02-.01.04-.02.06-.03,0-.01,0,0,0,0,.07-.04.14-.08.21-.12,3.41-1.76,7.06-3.12,10.89-4.03.45-.1.9-.2,1.35-.3,1.24-.25,2.49-.46,3.76-.61.66-.09,1.33-.16,2-.21V4.17c-.67.05-1.34.12-2,.21ZM26,11.32c4.9-2.53,10.3-4.24,16-4.94v14c-1.73.21-3.44.52-5.11.91-.48.12-.96.24-1.43.37-3.31.89-6.47,2.12-9.46,3.66v-14ZM26,27.32c3.41-1.76,7.06-3.12,10.89-4.03.45-.1.9-.2,1.35-.3,1.24-.25,2.49-.46,3.76-.61v14c-1.73.21-3.44.52-5.11.91-.48.12-.96.24-1.43.37-3.31.89-6.47,2.12-9.46,3.66v-14Z"/>
  <path class="cls-2" d="M42,22.38v14c-1.73.21-3.44.52-5.11.91-.48.12-.96.24-1.43.37-3.31.89-6.47,2.12-9.46,3.66v-14c3.41-1.76,7.06-3.12,10.89-4.03.45-.1.9-.2,1.35-.3,1.24-.25,2.49-.46,3.76-.61Z"/>
  <path class="cls-2" d="M42,6.38v14c-1.73.21-3.44.52-5.11.91-.48.12-.96.24-1.43.37-3.31.89-6.47,2.12-9.46,3.66v-14c4.9-2.53,10.3-4.24,16-4.94Z"/>
  <path class="cls-2" d="M22,9.32c-4.9-2.53-10.3-4.24-16-4.94-.66-.09-1.33-.16-2-.21v34c.67.05,1.34.12,2,.21,1.27.15,2.52.36,3.76.61.39.09.78.17,1.17.26.04,0,.07.02.11.03.06.01.11.03.17.04,1.86.44,3.68.99,5.44,1.65.07.02.13.05.19.07.09.03.17.07.26.1,1.69.65,3.32,1.36,4.9,2.18.09.05.19.1.28.15.31.16.6.32.9.48,0,0,.01,0,.01,0,.27.15.54.3.81.46V10.42c-.66-.38-1.33-.75-2-1.1ZM6,6.38c5.7.7,11.1,2.41,16,4.94v14c-2.99-1.54-6.15-2.77-9.46-3.66-.47-.13-.95-.25-1.43-.37-1.67-.39-3.38-.7-5.11-.91V6.38ZM6,22.38c1.27.15,2.52.36,3.76.61.45.1.9.2,1.35.3,3.83.91,7.48,2.27,10.89,4.03v14c-2.99-1.54-6.15-2.77-9.46-3.66-.47-.13-.95-.25-1.43-.37-1.67-.39-3.38-.7-5.11-.91v-14Z"/>
  <path class="cls-1" d="M22,27.32v14c-2.99-1.54-6.15-2.77-9.46-3.66-.47-.13-.95-.25-1.43-.37-1.67-.39-3.38-.7-5.11-.91v-14c1.27.15,2.52.36,3.76.61.45.1.9.2,1.35.3,3.83.91,7.48,2.27,10.89,4.03Z"/>
  <path class="cls-1" d="M22,11.32v14c-2.99-1.54-6.15-2.77-9.46-3.66-.47-.13-.95-.25-1.43-.37-1.67-.39-3.38-.7-5.11-.91V6.38c5.7.7,11.1,2.41,16,4.94Z"/>
  <g>
    <path class="cls-1" d="M23.3,44c-.34-.14-.68-.27-1.02-.39-.09-.04-.19-.07-.28-.1-1.93-.7-3.93-1.31-6-1.82-.65-.15-1.31-.31-1.97-.45h-.03c-.48-.1-.97-.21-1.46-.3-1.71-.32-3.46-.58-5.24-.77-.37-.04-.74-.07-1.11-.11h-.19c-.66-.07-1.33-.12-2-.15v-1.76c.67.05,1.34.12,2,.21.06,0,.12.01.19.02.37.04.74.09,1.11.15,1.78.27,3.53.64,5.24,1.11.49.13.98.27,1.46.42.01,0,.02,0,.03.01.66.19,1.32.41,1.97.64,2.07.73,4.07,1.6,6,2.59.09.05.19.1.28.15.34.18.68.36,1.02.55Z"/>
    <path class="cls-1" d="M23.3,44.5c-.06,0-.13-.01-.19-.04-.33-.14-.66-.26-1-.38-.09-.04-.15-.06-.21-.08-2-.72-4-1.33-6.02-1.83l-.53-.12c-.46-.11-.92-.22-1.39-.32-.03,0-.05,0-.07,0l-.38-.08c-.35-.08-.71-.15-1.07-.22-1.72-.32-3.47-.58-5.2-.77l-1.11-.11h-.14c-.7-.07-1.36-.12-2.02-.15-.27-.01-.48-.23-.48-.5v-1.76c0-.14.06-.27.16-.37.1-.09.24-.15.38-.13.68.05,1.36.12,2.03.21,0,0,.08,0,.17.02.39.04.77.09,1.15.16,1.79.27,3.57.65,5.29,1.12.49.13.99.27,1.48.42h0s.02,0,.03.01c.67.19,1.33.41,1.98.64,2.05.72,4.08,1.6,6.06,2.62l.29.16c.33.18.68.36,1.02.55.23.13.32.42.21.65-.09.18-.26.28-.45.28ZM14.06,40.74s.05,0,.07,0c.44.09.88.2,1.32.3-.52-.18-1.04-.35-1.57-.5-.02,0-.03,0-.04-.01-.47-.15-.95-.29-1.44-.41-1.69-.46-3.43-.83-5.19-1.1-.37-.06-.73-.11-1.09-.15-.02,0-.18-.02-.21-.02-.47-.06-.95-.12-1.43-.16v.74c.52.03,1.04.07,1.55.13h.14s1.16.11,1.16.11c1.76.19,3.53.45,5.28.78.37.07.73.14,1.1.22l.34.07Z"/>
  </g>
  <g>
    <path class="cls-1" d="M44,38v1.76c-.67.03-1.34.08-2,.15h-.19c-.37.04-.74.07-1.11.11-1.78.19-3.53.45-5.24.77-.49.09-.98.2-1.46.3h-.03c-.66.14-1.32.3-1.97.45-2.07.51-4.07,1.12-6,1.82-.09.03-.19.06-.28.1-.34.12-.68.25-1.02.39.34-.19.68-.37,1.02-.55.09-.05.19-.1.28-.15,1.93-.99,3.93-1.86,6-2.59.65-.23,1.31-.45,1.97-.64.01-.01.02-.01.03-.01.48-.15.97-.29,1.46-.42,1.71-.47,3.46-.84,5.24-1.11.37-.06.74-.11,1.11-.15.07-.01.13-.02.19-.02.66-.09,1.33-.16,2-.21Z"/>
    <path class="cls-1" d="M24.7,44.35c-.19,0-.36-.1-.45-.28-.12-.24-.02-.52.21-.65.31-.17.62-.34.94-.51l.37-.19c2-1.02,4.03-1.9,6.08-2.62.66-.23,1.32-.45,1.99-.65,0,0,.02,0,.02,0h0c.49-.15.98-.29,1.48-.43,1.7-.47,3.49-.85,5.29-1.12.38-.06.75-.11,1.13-.15.08-.01.16-.02.24-.02.6-.09,1.28-.16,1.96-.21.14-.01.27.04.38.13s.16.23.16.37v1.76c0,.27-.21.49-.48.5-.66.03-1.32.08-1.97.15l-1.3.11c-1.73.19-3.48.44-5.2.76-.34.06-.68.13-1.01.21l-.44.09s-.07.01-.1.01c-.41.09-.89.21-1.37.32l-.52.12c-2.01.49-4.01,1.1-5.94,1.8-.12.04-.19.06-.25.09-.37.13-.7.26-1.03.4-.06.03-.13.04-.19.04ZM34.14,40.39s-.02,0-.03,0c-.52.15-1.05.32-1.57.5.44-.1.88-.21,1.32-.3.03,0,.07-.01.1-.01l.36-.08c.34-.07.69-.15,1.04-.21,1.74-.33,3.52-.59,5.28-.78l1.35-.11c.47-.05.98-.09,1.5-.12v-.74c-.48.04-.96.1-1.43.16-.1,0-.13.01-.17.02-.39.04-.75.09-1.12.15-1.77.27-3.52.64-5.19,1.1-.49.13-.97.27-1.44.42,0,0,0,0-.01,0Z"/>
  </g>
</svg>