<?xml version="1.0" encoding="UTF-8"?>
<svg id="Layer_4" data-name="Layer 4" xmlns="http://www.w3.org/2000/svg" viewBox="0 0 48 48">
  <defs>
    <style>
      .cls-1 {
        fill: #272626;
      }

      .cls-2 {
        fill: #f4f0ea;
      }
    </style>
  </defs>
  <g>
    <ellipse class="cls-2" cx="24" cy="40" rx="20" ry="4"/>
    <path class="cls-1" d="M24,44.5c-10.19,0-20.5-1.55-20.5-4.5s10.31-4.5,20.5-4.5,20.5,1.55,20.5,4.5-10.31,4.5-20.5,4.5ZM24,36.5c-12.08,0-19.5,2.04-19.5,3.5s7.42,3.5,19.5,3.5,19.5-2.04,19.5-3.5-7.42-3.5-19.5-3.5Z"/>
  </g>
  <g>
    <path class="cls-1" d="M24.04,4.07c-6.61,0-11.96,5.36-11.96,11.96s9.93,23.96,11.93,23.96,12-17.36,12-23.96-5.36-11.96-11.96-11.96ZM24,24c-4.42,0-8-3.58-8-8s3.58-8,8-8,8,3.58,8,8-3.58,8-8,8Z"/>
    <path class="cls-1" d="M24,40.5c-2.6,0-12.43-18.18-12.43-24.46,0-6.87,5.59-12.46,12.46-12.46s12.46,5.59,12.46,12.46c0,6.29-9.89,24.46-12.5,24.46ZM24.04,4.57c-6.32,0-11.46,5.14-11.46,11.46s9.67,23.11,11.45,23.47c1.76-.36,11.48-17.1,11.48-23.47s-5.14-11.46-11.46-11.46ZM24,24.5c-4.69,0-8.5-3.81-8.5-8.5s3.81-8.5,8.5-8.5,8.5,3.81,8.5,8.5-3.81,8.5-8.5,8.5ZM24,8.5c-4.14,0-7.5,3.36-7.5,7.5s3.36,7.5,7.5,7.5,7.5-3.36,7.5-7.5-3.36-7.5-7.5-7.5Z"/>
  </g>
</svg>