<?xml version="1.0" encoding="UTF-8"?>
<svg id="Layer_12" data-name="Layer 12" xmlns="http://www.w3.org/2000/svg" viewBox="0 0 48 48">
  <defs>
    <style>
      .cls-1 {
        fill: #272626;
      }

      .cls-2 {
        fill: #f4f0ea;
      }
    </style>
  </defs>
  <g>
    <g>
      <path class="cls-1" d="M24,41c-10.62,0-19.29-6.63-19.94-15-.03.33-.06.66-.06,1,0,8.84,8.95,16,20,16s20-7.16,20-16c0-.34-.04-.67-.06-1-.65,8.37-9.31,15-19.94,15Z"/>
      <path class="cls-1" d="M24,43.5c-11.3,0-20.5-7.4-20.5-16.5,0-.27.02-.54.05-.81l.02-.23h1c.63,8.15,9.17,14.54,19.44,14.54s18.81-6.39,19.44-14.54h1l.02.23c.02.27.05.54.05.81,0,9.1-9.2,16.5-20.5,16.5ZM5.78,32.53c2.81,5.82,9.91,9.97,18.22,9.97s15.41-4.14,18.22-9.97c-3.41,5.34-10.33,8.97-18.22,8.97s-14.8-3.63-18.22-8.97Z"/>
    </g>
    <g>
      <path class="cls-1" d="M4.16,23c.05.35.12.69.21,1.04-.09.34-.15.68-.2,1.02-.05.31-.09.62-.11.94-.02-.33-.06-.66-.06-1s.01-.67.05-1c.01-.34.05-.67.11-1Z"/>
      <path class="cls-1" d="M4.56,26.03h-1s-.02-.32-.02-.32c-.02-.24-.04-.47-.04-.71,0-.36.01-.71.05-1.06,0-.3.05-.65.12-1.03l.55-3.03.44,3.05c.05.33.11.65.2.99l.03.13-.03.13c-.08.32-.14.64-.19.96-.05.3-.09.6-.11.9Z"/>
    </g>
    <g>
      <path class="cls-1" d="M44,25c0,.34-.04.67-.06,1-.02-.32-.06-.63-.11-.94-.05-.34-.11-.68-.2-1.02.09-.35.16-.69.21-1.04.06.33.1.66.11,1,.04.33.05.66.05,1Z"/>
      <path class="cls-1" d="M43.44,26.03c-.02-.3-.06-.6-.1-.89-.05-.33-.1-.65-.19-.97l-.03-.13.03-.13c.09-.33.15-.66.2-.99l.44-3.05.55,3.03c.07.38.11.73.12,1.08.04.3.05.65.05,1.01,0,.24-.02.48-.04.71l-.02.32h-1Z"/>
    </g>
  </g>
  <g>
    <path class="cls-2" d="M44,23c0,.34-.01.67-.05,1-.02.36-.06.71-.12,1.06-1.26,7.87-9.65,13.94-19.83,13.94s-18.57-6.07-19.83-13.94c-.06-.35-.1-.7-.12-1.06-.04-.33-.05-.66-.05-1s.01-.67.05-1c.01.34.05.67.11,1,.05.35.12.69.21,1.04,1.76,7.38,9.88,12.96,19.63,12.96s17.87-5.58,19.63-12.96c.09-.35.16-.69.21-1.04.06-.33.1-.66.11-1,.04.33.05.66.05,1Z"/>
    <path class="cls-1" d="M24,39.5c-10.28,0-19.01-6.17-20.32-14.36-.06-.36-.1-.73-.13-1.11-.04-.32-.05-.67-.05-1.03s.01-.71.05-1.06l1,.05c0,.29.04.59.1.92.05.35.12.67.2,1.01,1.74,7.29,9.79,12.58,19.15,12.58s17.41-5.29,19.14-12.58c.09-.34.15-.66.2-.99.06-.35.1-.65.11-.94l1-.05c.04.35.05.7.05,1.06s-.01.71-.05,1.06c-.02.35-.06.71-.12,1.08-1.31,8.18-10.05,14.36-20.32,14.36ZM5.88,28.73c2.89,5.77,10,9.77,18.12,9.77s15.23-4,18.12-9.77c-3.47,5.27-10.37,8.77-18.12,8.77s-14.65-3.5-18.12-8.77Z"/>
  </g>
  <g>
    <path class="cls-2" d="M44,21c0,.34-.01.67-.05,1-.01.34-.05.67-.11,1-.05.35-.12.69-.21,1.04-1.76,7.38-9.88,12.96-19.63,12.96S6.13,31.42,4.37,24.04c-.09-.35-.16-.69-.21-1.04-.06-.33-.1-.66-.11-1-.04-.33-.05-.66-.05-1C4,12.16,12.95,5,24,5s20,7.16,20,16Z"/>
    <path class="cls-1" d="M24,37.5c-9.81,0-18.27-5.61-20.12-13.34-.09-.36-.17-.72-.22-1.09-.07-.36-.1-.71-.12-1.06-.04-.3-.05-.65-.05-1.01C3.5,11.9,12.7,4.5,24,4.5s20.5,7.4,20.5,16.5c0,.36-.01.71-.05,1.06,0,.3-.05.65-.12,1.03-.05.35-.12.71-.22,1.07-1.84,7.72-10.3,13.34-20.11,13.34ZM24,5.5c-10.75,0-19.5,6.95-19.5,15.5,0,.32,0,.63.05.94.01.34.05.64.11.97.05.35.12.67.2,1.01,1.74,7.29,9.79,12.58,19.15,12.58s17.41-5.29,19.14-12.58c.09-.34.15-.66.2-.99.06-.35.1-.65.11-.94.04-.36.05-.67.05-.99,0-8.55-8.75-15.5-19.5-15.5Z"/>
  </g>
  <g>
    <path class="cls-1" d="M19.05,17.88c0-.42-.06-.47-.33-.49l-.43-.05v-.38l1.77-.31.09.07v7.21c0,.58.03.59.81.63v.43h-2.71v-.43c.78-.05.81-.06.81-.63v-6.05ZM21.78,19.86c.24-.31.35-.38.76-.38h1.16v.36c-.73.08-.93.17-1.33.48-.35.26-.63.56-1.13,1.17-.06.06-.06.14.03.28.41.63,1.16,1.65,1.81,2.34.34.34.59.43.9.53v.42l-.83-.02c-.39-.01-.85-.18-1.23-.61-.56-.6-1.29-1.59-1.71-2.32v-.07c.19-.34,1.23-1.74,1.56-2.16Z"/>
    <path class="cls-1" d="M25.98,23.95c0,.57.07.59,1.04.63v.42h-2.94v-.42c.75-.06.82-.06.82-.63v-3.37c0-.42-.06-.47-.32-.5l-.44-.06v-.38l1.72-.29.13.91c.7-.66,1.03-.92,1.42-.92.42,0,.58.3.58.58,0,.36-.24.72-.51.72-.06,0-.14,0-.24-.06-.3-.2-.5-.26-.64-.26-.23,0-.62.31-.62,1.15v2.49Z"/>
    <path class="cls-1" d="M27.87,24.34c0-.46.3-.84.73-.84.46,0,.75.38.74.84,0,.43-.28.79-.75.79-.42,0-.72-.36-.72-.79Z"/>
  </g>
</svg>