<?xml version="1.0" encoding="UTF-8"?>
<svg id="Layer_45" data-name="Layer 45" xmlns="http://www.w3.org/2000/svg" viewBox="0 0 48 48">
  <defs>
    <style>
      .cls-1 {
        fill: #272626;
      }
    </style>
  </defs>
  <g>
    <rect class="cls-1" x="22" y="4" width="4" height="40" rx="2" ry="2"/>
    <path class="cls-1" d="M24,44.5c-1.38,0-2.5-1.12-2.5-2.5V6c0-1.38,1.12-2.5,2.5-2.5s2.5,1.12,2.5,2.5v36c0,1.38-1.12,2.5-2.5,2.5ZM24,4.5c-.83,0-1.5.67-1.5,1.5v36c0,.83.67,1.5,1.5,1.5s1.5-.67,1.5-1.5V6c0-.83-.67-1.5-1.5-1.5Z"/>
  </g>
  <g>
    <rect class="cls-1" x="4" y="22" width="40" height="4" rx="2" ry="2"/>
    <path class="cls-1" d="M42,26.5H6c-1.38,0-2.5-1.12-2.5-2.5s1.12-2.5,2.5-2.5h36c1.38,0,2.5,1.12,2.5,2.5s-1.12,2.5-2.5,2.5ZM6,22.5c-.83,0-1.5.67-1.5,1.5s.67,1.5,1.5,1.5h36c.83,0,1.5-.67,1.5-1.5s-.67-1.5-1.5-1.5H6Z"/>
  </g>
</svg>