<?xml version="1.0" encoding="UTF-8"?>
<svg id="Layer_58" data-name="Layer 58" xmlns="http://www.w3.org/2000/svg" viewBox="0 0 48 48">
  <defs>
    <style>
      .cls-1 {
        fill: #272626;
      }

      .cls-2 {
        fill: #f4f0ea;
      }
    </style>
  </defs>
  <g>
    <rect class="cls-2" x="12" y="6" width="24" height="36" transform="translate(48 48) rotate(180)"/>
    <path class="cls-1" d="M36,42.5H12c-.28,0-.5-.22-.5-.5V6c0-.28.22-.5.5-.5h24c.28,0,.5.22.5.5v36c0,.28-.22.5-.5.5ZM12.5,41.5h23V6.5H12.5v35Z"/>
  </g>
  <path class="cls-1" d="M32,26.5h-12c-.28,0-.5-.22-.5-.5s.22-.5.5-.5h12c.28,0,.5.22.5.5s-.22.5-.5.5Z"/>
  <path class="cls-1" d="M32,30.5h-12c-.28,0-.5-.22-.5-.5s.22-.5.5-.5h12c.28,0,.5.22.5.5s-.22.5-.5.5Z"/>
  <path class="cls-1" d="M32,34.5h-12c-.28,0-.5-.22-.5-.5s.22-.5.5-.5h12c.28,0,.5.22.5.5s-.22.5-.5.5Z"/>
  <path class="cls-1" d="M32,38.5h-12c-.28,0-.5-.22-.5-.5s.22-.5.5-.5h12c.28,0,.5.22.5.5s-.22.5-.5.5Z"/>
  <g>
    <path class="cls-1" d="M24,11.95c-1.34-1.34-3.55-1.3-4.84.13-1.21,1.34-1.02,3.44.26,4.72l3.99,3.99c.33.33.85.33,1.18,0l3.99-3.99c1.28-1.28,1.46-3.38.26-4.72-1.29-1.43-3.49-1.47-4.84-.13Z"/>
    <path class="cls-1" d="M26.36,11.97c.67,0,1.29.28,1.74.78.82.91.72,2.4-.22,3.34l-3.87,3.87-3.87-3.87c-.94-.94-1.04-2.44-.22-3.34.45-.5,1.07-.78,1.74-.78.62,0,1.21.24,1.65.68.2.2.45.29.71.29s.51-.1.71-.29c.44-.44,1.03-.68,1.65-.68M26.36,10.97c-.85,0-1.71.33-2.36.98-.65-.65-1.5-.98-2.36-.98-.91,0-1.82.37-2.48,1.11-1.21,1.34-1.02,3.44.26,4.72l3.99,3.99c.16.16.38.24.59.24s.43-.08.59-.24l3.99-3.99c1.28-1.28,1.46-3.38.26-4.72-.66-.74-1.57-1.11-2.48-1.11h0Z"/>
  </g>
  <g>
    <circle class="cls-1" cx="16" cy="26" r="1"/>
    <path class="cls-1" d="M16,27.5c-.83,0-1.5-.67-1.5-1.5s.67-1.5,1.5-1.5,1.5.67,1.5,1.5-.67,1.5-1.5,1.5ZM16,25.5c-.28,0-.5.22-.5.5s.22.5.5.5.5-.22.5-.5-.22-.5-.5-.5Z"/>
  </g>
  <g>
    <circle class="cls-1" cx="16" cy="30" r="1"/>
    <path class="cls-1" d="M16,31.5c-.83,0-1.5-.67-1.5-1.5s.67-1.5,1.5-1.5,1.5.67,1.5,1.5-.67,1.5-1.5,1.5ZM16,29.5c-.28,0-.5.22-.5.5s.22.5.5.5.5-.22.5-.5-.22-.5-.5-.5Z"/>
  </g>
  <g>
    <circle class="cls-1" cx="16" cy="34" r="1"/>
    <path class="cls-1" d="M16,35.5c-.83,0-1.5-.67-1.5-1.5s.67-1.5,1.5-1.5,1.5.67,1.5,1.5-.67,1.5-1.5,1.5ZM16,33.5c-.28,0-.5.22-.5.5s.22.5.5.5.5-.22.5-.5-.22-.5-.5-.5Z"/>
  </g>
  <g>
    <circle class="cls-1" cx="16" cy="38" r="1"/>
    <path class="cls-1" d="M16,39.5c-.83,0-1.5-.67-1.5-1.5s.67-1.5,1.5-1.5,1.5.67,1.5,1.5-.67,1.5-1.5,1.5ZM16,37.5c-.28,0-.5.22-.5.5s.22.5.5.5.5-.22.5-.5-.22-.5-.5-.5Z"/>
  </g>
</svg>