<?xml version="1.0" encoding="UTF-8"?>
<svg id="Layer_24" data-name="Layer 24" xmlns="http://www.w3.org/2000/svg" viewBox="0 0 48 48">
  <defs>
    <style>
      .cls-1 {
        fill: #272626;
      }

      .cls-2 {
        fill: #f4f0ea;
      }
    </style>
  </defs>
  <g>
    <path class="cls-2" d="M44,24c0,8.84-8.95,16-20,16S4,32.84,4,24,12.95,8,24,8c2.18,0,4.28.28,6.24.8.92.24,1.3,1.34.76,2.12-.63.9-1,1.96-1,3.08,0,3.31,3.13,6,7,6,1.54,0,2.96-.43,4.12-1.15.79-.49,1.8-.16,2.11.71.5,1.41.77,2.89.77,4.43Z"/>
    <path class="cls-1" d="M24,40.5c-11.3,0-20.5-7.4-20.5-16.5S12.7,7.5,24,7.5c2.17,0,4.32.27,6.36.81.58.15,1.06.59,1.27,1.16.21.58.13,1.23-.23,1.73-.59.85-.91,1.81-.91,2.8,0,3.03,2.92,5.5,6.5,5.5,1.4,0,2.73-.37,3.85-1.07.51-.32,1.12-.39,1.68-.2.54.19.97.61,1.17,1.17.53,1.49.8,3.04.8,4.6,0,9.1-9.2,16.5-20.5,16.5ZM24,8.5c-10.75,0-19.5,6.95-19.5,15.5s8.75,15.5,19.5,15.5,19.5-6.95,19.5-15.5c0-1.45-.25-2.88-.75-4.26-.1-.27-.29-.47-.55-.56-.27-.09-.57-.06-.82.1-1.28.8-2.8,1.22-4.38,1.22-4.14,0-7.5-2.92-7.5-6.5,0-1.19.38-2.36,1.09-3.37.17-.24.21-.54.1-.81-.1-.27-.31-.47-.58-.54-1.96-.52-4.02-.78-6.11-.78Z"/>
  </g>
  <g>
    <ellipse class="cls-1" cx="12" cy="23" rx="4" ry="3"/>
    <path class="cls-1" d="M12,26.5c-2.48,0-4.5-1.57-4.5-3.5s2.02-3.5,4.5-3.5,4.5,1.57,4.5,3.5-2.02,3.5-4.5,3.5ZM12,20.5c-1.93,0-3.5,1.12-3.5,2.5s1.57,2.5,3.5,2.5,3.5-1.12,3.5-2.5-1.57-2.5-3.5-2.5Z"/>
  </g>
  <g>
    <ellipse class="cls-1" cx="16" cy="31" rx="4" ry="3"/>
    <path class="cls-1" d="M16,34.5c-2.48,0-4.5-1.57-4.5-3.5s2.02-3.5,4.5-3.5,4.5,1.57,4.5,3.5-2.02,3.5-4.5,3.5ZM16,28.5c-1.93,0-3.5,1.12-3.5,2.5s1.57,2.5,3.5,2.5,3.5-1.12,3.5-2.5-1.57-2.5-3.5-2.5Z"/>
  </g>
  <g>
    <ellipse class="cls-1" cx="28" cy="33" rx="4" ry="3"/>
    <path class="cls-1" d="M28,36.5c-2.48,0-4.5-1.57-4.5-3.5s2.02-3.5,4.5-3.5,4.5,1.57,4.5,3.5-2.02,3.5-4.5,3.5ZM28,30.5c-1.93,0-3.5,1.12-3.5,2.5s1.57,2.5,3.5,2.5,3.5-1.12,3.5-2.5-1.57-2.5-3.5-2.5Z"/>
  </g>
  <g>
    <ellipse class="cls-1" cx="24" cy="23" rx="4" ry="3"/>
    <path class="cls-1" d="M24,26.5c-2.48,0-4.5-1.57-4.5-3.5s2.02-3.5,4.5-3.5,4.5,1.57,4.5,3.5-2.02,3.5-4.5,3.5ZM24,20.5c-1.93,0-3.5,1.12-3.5,2.5s1.57,2.5,3.5,2.5,3.5-1.12,3.5-2.5-1.57-2.5-3.5-2.5Z"/>
  </g>
  <g>
    <ellipse class="cls-1" cx="36" cy="27" rx="4" ry="3"/>
    <path class="cls-1" d="M36,30.5c-2.48,0-4.5-1.57-4.5-3.5s2.02-3.5,4.5-3.5,4.5,1.57,4.5,3.5-2.02,3.5-4.5,3.5ZM36,24.5c-1.93,0-3.5,1.12-3.5,2.5s1.57,2.5,3.5,2.5,3.5-1.12,3.5-2.5-1.57-2.5-3.5-2.5Z"/>
  </g>
</svg>