<?xml version="1.0" encoding="UTF-8"?>
<svg id="Layer_46" data-name="Layer 46" xmlns="http://www.w3.org/2000/svg" viewBox="0 0 48 48">
  <defs>
    <style>
      .cls-1 {
        fill: #272626;
      }
    </style>
  </defs>
  <g>
    <rect class="cls-1" x="22" y="4" width="4" height="40" rx="2" ry="2" transform="translate(-9.94 24) rotate(-45)"/>
    <path class="cls-1" d="M36.73,39.23c-.64,0-1.28-.24-1.77-.73L9.5,13.04c-.98-.97-.98-2.56,0-3.54.97-.97,2.56-.97,3.54,0l25.46,25.46c.97.97.97,2.56,0,3.54-.49.49-1.13.73-1.77.73ZM11.27,9.77c-.38,0-.77.15-1.06.44-.58.58-.58,1.54,0,2.12l25.46,25.46c.58.58,1.54.58,2.12,0,.58-.58.58-1.54,0-2.12L12.33,10.21c-.29-.29-.68-.44-1.06-.44Z"/>
  </g>
  <g>
    <rect class="cls-1" x="4" y="22" width="40" height="4" rx="2" ry="2" transform="translate(-9.94 24) rotate(-45)"/>
    <path class="cls-1" d="M11.27,39.23c-.64,0-1.28-.24-1.77-.73-.98-.97-.97-2.56,0-3.54l25.46-25.46c.97-.97,2.56-.98,3.54,0,.97.97.97,2.56,0,3.54l-25.46,25.46c-.49.49-1.13.73-1.77.73ZM10.21,35.67c-.58.58-.58,1.54,0,2.12.59.58,1.54.58,2.12,0l25.46-25.46c.58-.58.58-1.54,0-2.12-.59-.58-1.54-.58-2.12,0l-25.46,25.46Z"/>
  </g>
</svg>