<?xml version="1.0" encoding="UTF-8"?>
<svg id="Layer_40" data-name="Layer 40" xmlns="http://www.w3.org/2000/svg" viewBox="0 0 48 48">
  <defs>
    <style>
      .cls-1 {
        fill: #272626;
      }
    </style>
  </defs>
  <path class="cls-1" d="M18.34,39.41l14.14-14.14c.78-.78.78-2.05,0-2.83l-14.14-14.14c-.78-.78-2.05-.78-2.83,0h0c-.78.78-.78,2.05,0,2.83l11.31,11.31c.78.78.78,2.05,0,2.83l-11.31,11.31c-.78.78-.78,2.05,0,2.83h0c.78.78,2.05.78,2.83,0Z"/>
  <path class="cls-1" d="M16.93,40.5c-.67,0-1.29-.26-1.77-.73-.97-.97-.97-2.56,0-3.54l11.31-11.31c.58-.58.58-1.54,0-2.12l-11.31-11.31c-.97-.97-.97-2.56,0-3.54.95-.95,2.59-.94,3.54,0l14.14,14.14c.97.97.97,2.56,0,3.54l-14.14,14.14c-.47.47-1.1.73-1.77.73ZM16.93,8.22c-.4,0-.78.16-1.06.44-.58.58-.58,1.54,0,2.12l11.31,11.31c.97.97.97,2.56,0,3.54l-11.31,11.31c-.58.58-.58,1.54,0,2.12s1.56.57,2.12,0l14.14-14.14c.58-.58.58-1.54,0-2.12l-14.14-14.14c-.28-.28-.66-.44-1.06-.44Z"/>
</svg>