<?xml version="1.0" encoding="UTF-8"?>
<svg id="Layer_43" data-name="Layer 43" xmlns="http://www.w3.org/2000/svg" viewBox="0 0 48 48">
  <defs>
    <style>
      .cls-1 {
        fill: #272626;
      }
    </style>
  </defs>
  <path class="cls-1" d="M24.92,5.1l5,10.76,11.78,1.43c.86.1,1.2,1.16.57,1.75l-8.69,8.08,2.28,11.64c.17.85-.73,1.5-1.49,1.08l-10.37-5.77-10.37,5.77c-.75.42-1.65-.23-1.49-1.08l2.28-11.64-8.69-8.08c-.63-.59-.29-1.64.57-1.75l11.78-1.43,5-10.76c.36-.78,1.47-.78,1.84,0Z"/>
  <path class="cls-1" d="M34.86,40.46c-.25,0-.5-.06-.74-.19l-10.12-5.63-10.12,5.63c-.52.29-1.14.25-1.62-.1s-.71-.93-.6-1.52l2.23-11.37-8.49-7.89c-.44-.41-.59-1.01-.41-1.58.18-.57.67-.96,1.26-1.03l11.5-1.39,4.88-10.51c.25-.54.78-.88,1.37-.88s1.12.34,1.37.88l4.88,10.51,11.5,1.39c.59.07,1.07.47,1.26,1.03.18.57.03,1.17-.41,1.58l-8.49,7.89,2.23,11.37c.12.58-.11,1.17-.59,1.52-.27.19-.58.29-.89.29ZM24,33.49l10.61,5.91c.27.15.49,0,.55-.03.06-.04.26-.21.2-.51l-2.34-11.92,8.89-8.27c.22-.21.16-.46.14-.53-.02-.07-.12-.31-.43-.35l-12.05-1.46-5.11-11.01c-.13-.28-.39-.3-.46-.3s-.34.02-.46.3l-5.11,11.01-12.05,1.46c-.3.04-.4.28-.43.35-.02.07-.08.33.14.54l8.9,8.27-2.34,11.92c-.06.3.14.47.2.51s.29.18.55.03l10.61-5.91Z"/>
</svg>