<?xml version="1.0" encoding="UTF-8"?>
<svg id="Layer_5" data-name="Layer 5" xmlns="http://www.w3.org/2000/svg" viewBox="0 0 48 48">
  <defs>
    <style>
      .cls-1 {
        fill: #272626;
      }

      .cls-2 {
        fill: #f4f0ea;
      }
    </style>
  </defs>
  <g>
    <path class="cls-1" d="M23.99,24.23l-3.82,15.31c-6.99-1.72-12.17-8.02-12.17-15.54,0-8.15,6.08-14.87,13.95-15.87l-7.94,15.94s.01.08.05.08h9.87s.07.04.06.08Z"/>
    <path class="cls-1" d="M20.53,40.14l-.48-.12c-7.39-1.82-12.55-8.41-12.55-16.03,0-8.29,6.19-15.32,14.39-16.37l.93-.12-8.04,16.13h9.4l.2.21c.11.14.15.31.1.48h0s-3.94,15.8-3.94,15.8ZM21.07,8.78c-7.23,1.38-12.57,7.76-12.57,15.22,0,6.99,4.62,13.06,11.31,14.93l3.56-14.28h-9.59l-.34-.5.12-.3,7.51-15.08Z"/>
  </g>
  <g>
    <path class="cls-1" d="M40,24c0,8.84-7.16,16-16,16-.83,0-1.64-.06-2.44-.18l12.44-21.82s-10.05.04-10.03,0l6.28-8.73c5.73,2.43,9.75,8.11,9.75,14.73Z"/>
    <path class="cls-1" d="M24,40.5c-.85,0-1.7-.06-2.51-.19l-.72-.11,12.38-21.72c-.96,0-2.63,0-4.16.01q-5.28.02-5.44-.23l-.18-.28,6.71-9.33.37.16c6.11,2.59,10.05,8.55,10.05,15.19,0,9.1-7.4,16.5-16.5,16.5ZM22.37,39.42c.54.05,1.09.08,1.63.08,8.55,0,15.5-6.95,15.5-15.5,0-6.1-3.55-11.6-9.08-14.11l-5.48,7.62c.97,0,2.58,0,4.05-.01q5.29-.02,5.44.24l.16.25-12.22,21.43Z"/>
  </g>
  <g>
    <path class="cls-2" d="M34,18l-12.44,21.82-2.37,4.15c-.04.06-.13.02-.11-.04l1.09-4.39,3.82-15.31s-.02-.08-.06-.08h-9.87s-.07-.04-.05-.08l7.94-15.94,2.04-4.1s.03-.03.05-.03h9.9s.07.05.04.09l-3.73,5.18-6.28,8.73s10.05-.04,10.03,0Z"/>
    <path class="cls-1" d="M19.39,44.62l-.5-.18c-.25-.12-.37-.41-.28-.67l4.76-19.12h-9.59l-.34-.5.12-.3L23.68,3.53l.36-.03h10.21l.32.58-.19.31-9.44,13.12c.98,0,2.58,0,4.05-.01q5.29-.02,5.44.24l.16.25-15.19,26.64ZM14.78,23.65h9.4l.2.21c.11.14.15.31.1.48l-4.14,16.62,12.81-22.48c-.96,0-2.63,0-4.16.01q-5.28.02-5.44-.23l-.18-.28,9.7-13.48h-8.75l-9.54,19.15Z"/>
  </g>
</svg>