<?xml version="1.0" encoding="UTF-8"?>
<svg id="Layer_11" data-name="Layer 11" xmlns="http://www.w3.org/2000/svg" viewBox="0 0 48 48">
  <defs>
    <style>
      .cls-1 {
        fill: #272626;
      }

      .cls-2 {
        stroke: #272626;
        stroke-linejoin: round;
      }

      .cls-2, .cls-3 {
        fill: #f4f0ea;
      }
    </style>
  </defs>
  <g>
    <path class="cls-1" d="M13.74,21.37c0,.11-.01.22-.03.33-.13-.78-.8-1.37-1.61-1.37s-1.46.58-1.59,1.34c-.02-.1-.03-.2-.03-.3,0-.9.73-1.62,1.63-1.62s1.63.72,1.63,1.62Z"/>
    <path class="cls-1" d="M13.71,22.2h0c-.24,0-.45-.18-.49-.42-.09-.55-.56-.95-1.12-.95s-1.01.39-1.1.92c-.04.24-.25.41-.49.42h0c-.24,0-.44-.17-.49-.4-.03-.13-.04-.26-.04-.4,0-1.17.96-2.12,2.13-2.12s2.13.95,2.13,2.12c0,.14-.01.28-.04.42-.04.24-.25.41-.49.41Z"/>
  </g>
  <g>
    <polygon class="cls-1" points="39.79 33.12 37.66 39.77 10.99 31.24 6.2 21.94 12.47 29.89 39.79 33.12"/>
    <path class="cls-1" d="M37.66,40.27c-.05,0-.1,0-.15-.02l-26.67-8.53c-.13-.04-.23-.13-.29-.25l-4.79-9.3c-.12-.23-.04-.51.17-.65.22-.14.5-.09.66.11l6.14,7.79,27.11,3.21c.15.02.28.1.36.23.08.13.1.28.06.42l-2.13,6.65c-.07.21-.26.35-.48.35ZM11.34,30.83l26,8.31,1.79-5.59-26.72-3.16c-.13-.01-.25-.08-.33-.19l-3.06-3.88,2.32,4.5Z"/>
  </g>
  <g>
    <polygon class="cls-1" points="42.54 24.53 40.57 30.7 41.34 24.15 42.54 24.53"/>
    <path class="cls-1" d="M40.57,31.2s-.07,0-.11-.01c-.25-.05-.42-.29-.39-.55l.77-6.55c.02-.15.1-.28.23-.36.13-.08.28-.1.42-.06l1.2.38c.13.04.23.13.29.25.06.12.07.25.03.38l-1.97,6.17c-.07.21-.26.35-.48.35ZM41.77,24.81l-.09.79.24-.75-.15-.05Z"/>
  </g>
  <path class="cls-2" d="M14.35,14l-8.89,7,.74.94,6.27,7.95,27.32,3.23.48.06.3-2.48.77-6.55.82-6.86-27.81-3.29ZM13.71,21.7h0c-.16.75-.82,1.3-1.6,1.3s-1.46-.57-1.6-1.33c-.02-.1-.03-.2-.03-.3,0-.9.73-1.62,1.63-1.62s1.63.72,1.63,1.62c0,.11-.01.22-.03.33Z"/>
  <g>
    <path class="cls-1" d="M33.09,27.46c0-.22-.13-.6-.25-.83.16-.13.79-.44,1.1-.4.2.19.36.56.36.8,0,.98-.76,1.96-1.62,2.83l-.31-.24c.49-.67.72-1.27.72-2.17Z"/>
    <path class="cls-1" d="M39.1,24.81v.83h-2.93v-.83h2.93Z"/>
  </g>
  <g>
    <path class="cls-3" d="M13.74,21.37c0,.11-.01.22-.03.33-.13-.78-.8-1.37-1.61-1.37s-1.46.58-1.59,1.34c-.02-.1-.03-.2-.03-.3,0-.9.73-1.62,1.63-1.62s1.63.72,1.63,1.62Z"/>
    <path class="cls-1" d="M13.71,22.2h0c-.24,0-.45-.18-.49-.42-.09-.55-.56-.95-1.12-.95s-1.01.39-1.1.92c-.04.24-.25.41-.49.42h0c-.24,0-.44-.17-.49-.4-.03-.13-.04-.26-.04-.4,0-1.17.96-2.12,2.13-2.12s2.13.95,2.13,2.12c0,.14-.01.28-.04.42-.04.24-.25.41-.49.41Z"/>
  </g>
  <path class="cls-1" d="M12.11,23.5c-1.03,0-1.91-.73-2.09-1.74-.01-.06-.01-.12,0-.18.17-1.02,1.05-1.75,2.08-1.75s1.93.75,2.1,1.79c0,.03,0,.05,0,.08h0s0,.08-.01.12c-.21.98-1.09,1.68-2.09,1.68ZM11.02,21.67c.13.49.58.83,1.09.83s.94-.33,1.09-.81c-.12-.5-.57-.86-1.1-.86s-.95.35-1.08.84Z"/>
</svg>