<?xml version="1.0" encoding="UTF-8"?>
<svg id="Layer_17" data-name="Layer 17" xmlns="http://www.w3.org/2000/svg" viewBox="0 0 48 48">
  <defs>
    <style>
      .cls-1 {
        fill: #272626;
      }

      .cls-2 {
        fill: #f4f0ea;
      }
    </style>
  </defs>
  <g>
    <rect class="cls-2" x="4" y="12" width="40" height="28"/>
    <path class="cls-1" d="M44,40.5H4c-.28,0-.5-.22-.5-.5V12c0-.28.22-.5.5-.5h40c.28,0,.5.22.5.5v28c0,.28-.22.5-.5.5ZM4.5,39.5h39V12.5H4.5v27Z"/>
  </g>
  <g>
    <path class="cls-1" d="M26.74,27.53l17.26-15.53H4l17.26,15.53c1.56,1.4,3.92,1.4,5.48,0Z"/>
    <path class="cls-1" d="M24,29.09c-1.1,0-2.2-.39-3.08-1.18L3.67,12.37c-.15-.14-.21-.36-.13-.55.07-.19.26-.32.47-.32h40c.21,0,.39.13.47.32.07.19.02.41-.13.55l-17.26,15.53h0c-.88.79-1.98,1.18-3.08,1.18ZM5.3,12.5l16.29,14.66c1.37,1.23,3.44,1.24,4.81,0l16.29-14.66H5.3Z"/>
  </g>
  <path class="cls-1" d="M44,40.5H4c-.21,0-.39-.13-.47-.32-.07-.19-.02-.41.13-.55l15.56-14,.67.74-14.59,13.13h37.39l-14.59-13.13.67-.74,15.56,14c.15.14.21.36.13.55-.07.19-.26.32-.47.32Z"/>
</svg>