<?xml version="1.0" encoding="UTF-8"?>
<svg id="Layer_15" data-name="Layer 15" xmlns="http://www.w3.org/2000/svg" viewBox="0 0 48 48">
  <defs>
    <style>
      .cls-1 {
        fill: #272626;
      }

      .cls-2 {
        fill: #f4f0ea;
      }
    </style>
  </defs>
  <g>
    <path class="cls-2" d="M18.35,19.33l-3,2.26c-2.67-3.51-4.55-7.65-5.4-12.27l3.71-.68c.98-.18,1.95.42,2.2,1.39.64,2.44,1.66,4.71,2.96,6.73.54.84.33,1.98-.47,2.57Z"/>
    <path class="cls-1" d="M15.35,22.09c-.15,0-.3-.07-.4-.2-2.8-3.68-4.65-7.88-5.49-12.49-.05-.27.13-.53.4-.58l3.71-.68c1.24-.23,2.46.54,2.78,1.76.62,2.34,1.59,4.56,2.9,6.59.69,1.06.43,2.49-.59,3.24l-3,2.26c-.09.07-.2.1-.3.1ZM10.54,9.72c.82,4.09,2.47,7.84,4.91,11.17l2.6-1.96s0,0,0,0c.6-.44.75-1.28.35-1.9-1.36-2.12-2.38-4.43-3.02-6.88-.19-.71-.9-1.17-1.63-1.03l-3.21.59Z"/>
  </g>
  <g>
    <path class="cls-2" d="M43.26,29.04l.68,3.71c-4.62.85-9.17.56-13.39-.68l1.04-3.61c.27-.96,1.25-1.56,2.24-1.35,2.37.49,4.83.64,7.35.37,1-.11,1.9.58,2.08,1.56Z"/>
    <path class="cls-1" d="M38.63,33.74c-2.78,0-5.53-.4-8.22-1.19-.26-.08-.42-.35-.34-.62l1.04-3.61c.34-1.22,1.58-1.97,2.82-1.71,2.38.5,4.79.62,7.19.36,1.24-.14,2.4.73,2.63,1.97l.68,3.71c.05.27-.13.53-.4.58-1.81.33-3.61.5-5.4.5ZM31.17,31.72c3.98,1.1,8.07,1.3,12.19.62l-.59-3.21h0c-.13-.73-.8-1.24-1.54-1.16-2.5.26-5.02.14-7.5-.38-.73-.15-1.45.29-1.65,1l-.91,3.13Z"/>
  </g>
  <g>
    <path class="cls-1" d="M43.94,32.75l.08.42c.59,3.23-1.9,6.2-5.19,6.23-3.44.02-6.8-.47-9.99-1.41-7.34-2.11-13.82-6.58-18.4-12.68-2.02-2.65-3.67-5.61-4.87-8.84-1.15-3.08.74-6.47,3.97-7.06l.42-.08c.85,4.62,2.73,8.77,5.4,12.27,3.79,5.04,9.14,8.73,15.19,10.47,4.23,1.24,8.77,1.53,13.39.68Z"/>
    <path class="cls-1" d="M38.64,39.9c-3.37,0-6.71-.48-9.95-1.43-7.4-2.13-14.03-6.7-18.66-12.86-2.08-2.73-3.74-5.75-4.94-8.96-.6-1.62-.46-3.41.39-4.91.84-1.49,2.29-2.51,3.96-2.82l.42-.08c.28-.04.53.13.58.4.82,4.45,2.6,8.5,5.31,12.06,3.71,4.93,9.01,8.59,14.93,10.3,4.29,1.26,8.72,1.49,13.16.67.27-.04.53.13.58.4l.08.42c.31,1.68-.14,3.39-1.23,4.71-1.1,1.33-2.72,2.1-4.45,2.11-.06,0-.13,0-.19,0ZM9.55,9.9c-1.35.27-2.52,1.11-3.2,2.32-.71,1.24-.82,2.72-.32,4.07,1.17,3.12,2.78,6.05,4.8,8.71,4.5,6,10.94,10.44,18.14,12.51,3.21.94,6.51,1.37,9.85,1.39,1.43,0,2.77-.65,3.69-1.75.88-1.07,1.26-2.46,1.03-3.82-4.44.74-8.85.48-13.13-.78-6.13-1.77-11.62-5.55-15.45-10.65-2.7-3.55-4.51-7.58-5.4-11.99Z"/>
  </g>
</svg>