<?xml version="1.0" encoding="UTF-8"?>
<svg id="Layer_59" data-name="Layer 59" xmlns="http://www.w3.org/2000/svg" viewBox="0 0 48 48">
  <defs>
    <style>
      .cls-1 {
        fill: #272626;
      }

      .cls-2 {
        fill: #f4f0ea;
      }
    </style>
  </defs>
  <g>
    <rect class="cls-1" x="22" y="4" width="4" height="2"/>
    <path class="cls-1" d="M26,6.5h-4c-.28,0-.5-.22-.5-.5v-2c0-.28.22-.5.5-.5h4c.28,0,.5.22.5.5v2c0,.28-.22.5-.5.5ZM22.5,5.5h3v-1h-3v1Z"/>
  </g>
  <path class="cls-1" d="M24,8.5c-.28,0-.5-.22-.5-.5v-2c0-.28.22-.5.5-.5s.5.22.5.5v2c0,.28-.22.5-.5.5Z"/>
  <path class="cls-1" d="M35.32,13.18c-.13,0-.26-.05-.35-.15-.2-.2-.2-.51,0-.71l.68-.68c.2-.2.51-.2.71,0s.2.51,0,.71l-.68.68c-.1.1-.23.15-.35.15Z"/>
  <g>
    <path class="cls-1" d="M33.9,14.1l-9.9,9.9v-14c3.86,0,7.36,1.57,9.9,4.1Z"/>
    <path class="cls-1" d="M24,24.5c-.06,0-.13-.01-.19-.04-.19-.08-.31-.26-.31-.46v-14c0-.28.22-.5.5-.5,3.86,0,7.5,1.51,10.25,4.25.09.09.15.22.15.35s-.05.26-.15.35l-9.9,9.9c-.1.1-.22.15-.35.15ZM24.5,10.51v12.28l8.69-8.69c-2.39-2.22-5.44-3.48-8.69-3.6Z"/>
  </g>
  <g>
    <path class="cls-2" d="M35.32,12.68c-2.9-2.89-6.9-4.68-11.32-4.68-8.84,0-16,7.16-16,16s7.16,16,16,16,16-7.16,16-16c0-4.42-1.79-8.42-4.68-11.32ZM33.9,14.1l-9.9,9.9v-14c3.86,0,7.36,1.57,9.9,4.1"/>
    <path class="cls-1" d="M24,40.5c-9.1,0-16.5-7.4-16.5-16.5S14.9,7.5,24,7.5c4.4,0,8.55,1.71,11.67,4.83,0,0,0,0,0,0,3.11,3.12,4.83,7.27,4.83,11.67,0,9.1-7.4,16.5-16.5,16.5ZM24,8.5c-8.55,0-15.5,6.95-15.5,15.5s6.95,15.5,15.5,15.5,15.5-6.95,15.5-15.5c0-4.14-1.61-8.03-4.53-10.97h0c-2.93-2.92-6.83-4.53-10.97-4.53ZM24,24.5c-.06,0-.13-.01-.19-.04-.19-.08-.31-.26-.31-.46v-14c0-.28.22-.5.5-.5,3.86,0,7.5,1.51,10.25,4.25.09.09.15.22.15.35s-.05.26-.15.35l-9.9,9.9c-.1.1-.22.15-.35.15ZM24.5,10.51v12.28l8.69-8.69c-2.39-2.22-5.44-3.48-8.69-3.6Z"/>
  </g>
  <path class="cls-1" d="M10,24.5c-.14,0-.26-.05-.35-.15-.05-.04-.09-.1-.11-.16-.03-.06-.04-.12-.04-.19,0-.13.05-.26.15-.35.13-.14.36-.19.54-.11.06.02.12.06.16.11.1.09.15.22.15.35s-.05.26-.15.35c-.04.05-.1.09-.16.11-.06.03-.12.04-.19.04Z"/>
  <path class="cls-1" d="M38,24.5c-.13,0-.26-.05-.35-.15-.1-.09-.15-.22-.15-.35s.05-.26.15-.35c.04-.05.1-.09.16-.11.18-.08.41-.03.54.11.05.04.09.1.11.16.03.06.04.13.04.19,0,.13-.05.26-.15.35-.04.05-.1.09-.16.11-.06.03-.12.04-.19.04Z"/>
  <path class="cls-1" d="M11.88,31.5c-.14,0-.26-.05-.36-.15-.09-.09-.14-.21-.14-.35,0-.13.05-.26.14-.35.05-.05.1-.09.16-.11.13-.05.26-.05.39,0,.06.02.11.06.16.11.09.09.15.22.15.35s-.06.26-.15.35c-.1.1-.22.15-.35.15Z"/>
  <path class="cls-1" d="M36.13,17.5c-.07,0-.14,0-.2-.04-.06-.02-.11-.06-.16-.11-.09-.09-.15-.22-.15-.35,0-.07.02-.13.04-.19.03-.06.06-.12.11-.16.14-.14.36-.19.55-.11.06.02.11.06.16.11.04.04.08.1.11.16.02.06.03.12.03.19,0,.13-.05.26-.14.35-.05.05-.1.09-.16.11-.06.03-.13.04-.19.04Z"/>
  <path class="cls-1" d="M17,36.62c-.07,0-.13-.01-.19-.03-.06-.03-.12-.07-.16-.11-.1-.1-.15-.22-.15-.36,0-.13.05-.26.15-.35.04-.05.1-.08.16-.11.18-.08.4-.03.54.11.1.09.15.22.15.35,0,.14-.05.26-.15.36-.04.04-.1.08-.16.11-.06.02-.12.03-.19.03Z"/>
  <path class="cls-1" d="M31,12.37c-.07,0-.13-.01-.19-.03-.06-.03-.12-.06-.16-.11-.05-.05-.09-.1-.11-.16-.03-.06-.04-.13-.04-.19,0-.07,0-.14.04-.2.02-.06.06-.11.11-.16.14-.14.36-.18.54-.11.06.03.12.07.16.11.05.05.09.1.11.16.03.06.04.13.04.2,0,.13-.05.26-.15.35-.04.05-.1.08-.16.11-.06.02-.12.03-.19.03Z"/>
  <path class="cls-1" d="M24,38.5c-.07,0-.13,0-.19-.04-.06-.02-.12-.06-.16-.11-.1-.09-.15-.22-.15-.35,0-.06,0-.13.04-.19.02-.06.06-.12.11-.16.18-.19.52-.19.7,0,.05.04.09.1.11.16.03.06.04.13.04.19,0,.14-.05.26-.15.35-.04.05-.1.09-.16.11-.06.03-.12.04-.19.04Z"/>
  <path class="cls-1" d="M24,10.5c-.07,0-.13,0-.19-.04-.06-.02-.12-.06-.16-.11-.05-.04-.09-.1-.11-.16-.03-.06-.04-.12-.04-.19s0-.13.04-.19c.02-.06.06-.12.11-.16.14-.14.35-.19.54-.11.06.02.12.06.16.11.05.04.09.1.11.16.03.06.04.12.04.19s-.01.13-.04.19c-.02.06-.06.12-.11.16-.09.1-.22.15-.35.15Z"/>
  <path class="cls-1" d="M31,36.62c-.13,0-.26-.05-.35-.14-.1-.1-.15-.22-.15-.36,0-.13.05-.26.15-.35.04-.04.1-.08.16-.11.12-.05.26-.05.38,0,.06.03.12.07.16.11.05.05.09.1.11.16.03.06.04.13.04.19,0,.14-.05.26-.15.36-.09.09-.21.14-.35.14Z"/>
  <path class="cls-1" d="M17,12.37c-.07,0-.13-.01-.19-.03-.06-.03-.12-.06-.16-.11-.05-.05-.09-.1-.11-.16-.03-.06-.04-.13-.04-.19,0-.07,0-.14.04-.2.02-.06.06-.11.11-.16.04-.04.1-.08.16-.11.18-.07.4-.03.54.11.05.05.09.1.11.16.03.06.04.13.04.2,0,.06-.01.13-.04.19-.02.06-.06.11-.11.16-.04.05-.1.08-.16.11-.06.02-.12.03-.19.03Z"/>
  <path class="cls-1" d="M36.12,31.5c-.06,0-.13,0-.19-.04-.06-.02-.11-.06-.16-.11-.09-.09-.14-.22-.14-.35s.05-.26.14-.35c.19-.19.52-.19.71,0,.09.09.14.22.14.35s-.05.26-.14.35c-.05.05-.1.09-.16.11-.06.03-.13.04-.2.04Z"/>
  <path class="cls-1" d="M11.88,17.5c-.07,0-.14,0-.2-.04-.06-.02-.11-.06-.16-.11-.04-.04-.08-.1-.11-.16-.02-.06-.03-.12-.03-.19s0-.13.03-.19c.03-.06.07-.12.11-.16.05-.05.1-.09.16-.11.13-.06.26-.06.39,0,.06.02.11.06.16.11.05.04.08.1.11.16.02.06.03.12.03.19s0,.13-.03.19c-.03.06-.06.12-.11.16-.09.1-.22.15-.35.15Z"/>
</svg>